<?xml version="1.0" encoding="utf-8"?>
<!-- Generator: Adobe Illustrator 22.1.0, SVG Export Plug-In . SVG Version: 6.00 Build 0)  -->
<svg version="1.1" id="Layer_1" xmlns="http://www.w3.org/2000/svg" xmlns:xlink="http://www.w3.org/1999/xlink" x="0px" y="0px"
	 viewBox="0 0 1920 1080" style="enable-background:new 0 0 1920 1080;" xml:space="preserve">
<path d="M462,328l32-7l37-4l13,6l15,1l31-1l-11-14l28,3c0,0,12,3,19,1s16,3,31,6s31,7,31,7l29-11l46,5h7l12-5l-18-11l42,6l28,11
	l29,2l11-12l7,1c0,0-14,18,46,20s60,2,60,2s-20-9,17,2s26,6,26,6l59,13l56,17l21-4l-88,14l24,9l-25,4c0,0-53,7-16,8s92,7,92,7
	l-87,16l-56-3c0,0-6,28-50,18s-2-1-44-10s23,10-31-5s-48-15-48-15l-58,2l-31,1l-55,6l-23-1l-28-11l-48-1l-52,4c0,0-32-9-40-7
	s-43,12-43,12l-39-12l-44,2l54-12l-9-10l-28-8l24-8l8-9l-35-16l23-6l19,3L462,328z"/>
<path d="M584,420l24-1l19,3l19,3c0,0-9,5-14,5s-22,3-22,3l-32-2l-32-4L584,420z"/>
</svg>
